<svg width="253" height="28" viewBox="0 0 253 28" fill="none" xmlns="http://www.w3.org/2000/svg">
<path d="M12.7803 11.0576C13.7178 11.4971 14.4502 12.166 14.9775 13.0645C15.5049 13.9629 15.7686 14.9785 15.7686 16.1113C15.7686 17.7617 15.1436 19.1582 13.8936 20.3008C12.6436 21.4336 11.1104 22 9.29395 22H0.666016V0.994141H9.13281C10.8906 0.994141 12.3457 1.50684 13.498 2.53223C14.6504 3.55762 15.2266 4.84668 15.2266 6.39941C15.2266 7.31738 15.0068 8.20117 14.5674 9.05078C14.1279 9.90039 13.5322 10.5693 12.7803 11.0576ZM10.9785 8.86035C11.5156 8.33301 11.7842 7.67871 11.7842 6.89746C11.7842 6.11621 11.5156 5.4668 10.9785 4.94922C10.4414 4.43164 9.75781 4.17285 8.92773 4.17285H4.06445V9.63672H8.92773C9.75781 9.63672 10.4414 9.37793 10.9785 8.86035ZM9.10352 18.7041C10.0215 18.7041 10.7734 18.4258 11.3594 17.8691C11.9551 17.3125 12.2529 16.5996 12.2529 15.7305C12.2529 14.8809 11.9551 14.1777 11.3594 13.6211C10.7637 13.0547 10.0117 12.7715 9.10352 12.7715H4.06445V18.7041H9.10352ZM32.0283 20.418C30.6904 21.7363 28.9082 22.3955 26.6816 22.3955C24.4551 22.3955 22.668 21.7363 21.3203 20.418C19.9824 19.0996 19.3135 17.3467 19.3135 15.1592V5.79883H22.6387V14.6904C22.6387 16.0967 23 17.2051 23.7227 18.0156C24.4453 18.8164 25.4316 19.2168 26.6816 19.2168C27.9316 19.2168 28.9131 18.8115 29.626 18.001C30.3486 17.1904 30.71 16.0869 30.71 14.6904V5.79883H34.0352V15.1592C34.0352 17.3467 33.3662 19.0996 32.0283 20.418ZM50.0752 5.79883H53.6201L46.1787 22.293C45.251 24.3535 44.3037 25.7842 43.3369 26.585C42.3701 27.3955 41.0713 27.8008 39.4404 27.8008H37.7852V24.8125H39.1768C40.2314 24.8125 41.0078 24.6025 41.5059 24.1826C42.0039 23.7725 42.5557 22.9082 43.1611 21.5898L43.5273 20.8281L36.4814 5.79883H40.0996L45.2412 17.0928L50.0752 5.79883ZM67.9463 18.9385H75.3877V22H61.7354V21.1211C64.7236 17.8594 66.8818 15.4229 68.21 13.8115C69.5479 12.2002 70.4316 10.9795 70.8613 10.1494C71.3008 9.30957 71.5205 8.47949 71.5205 7.65918C71.5205 6.78027 71.2422 6.07227 70.6855 5.53516C70.1387 4.99805 69.416 4.72949 68.5176 4.72949C67.5801 4.72949 66.8232 5.00781 66.2471 5.56445C65.6807 6.11133 65.3975 6.82422 65.3975 7.70312V8.14258H62.1602V7.68848C62.1602 5.8916 62.7412 4.44141 63.9033 3.33789C65.0654 2.22461 66.5938 1.66797 68.4883 1.66797C70.3438 1.66797 71.8574 2.22949 73.0293 3.35254C74.2012 4.46582 74.7871 5.89648 74.7871 7.64453C74.7871 8.57227 74.6211 9.46582 74.2891 10.3252C73.957 11.1846 73.2979 12.2979 72.3115 13.665C71.3252 15.0225 69.8701 16.7803 67.9463 18.9385ZM99.3086 10.2812V13.3574H93.9619V18.9971H90.6953V13.3574H85.3193V10.2812H90.6953V4.80273H93.9619V10.2812H99.3086Z" fill="#11346F"/>
<path d="M119.128 11.0283H130.305C130.305 13.1963 129.851 15.1494 128.942 16.8877C128.044 18.626 126.774 19.9883 125.134 20.9746C123.503 21.9609 121.652 22.4541 119.582 22.4541C118.059 22.4541 116.623 22.1807 115.275 21.6338C113.938 21.0771 112.785 20.3203 111.818 19.3633C110.852 18.3965 110.09 17.2393 109.533 15.8916C108.977 14.5342 108.698 13.0791 108.698 11.5264C108.698 9.97363 108.972 8.51855 109.519 7.16113C110.065 5.80371 110.812 4.6416 111.76 3.6748C112.707 2.69824 113.85 1.93164 115.188 1.375C116.525 0.818359 117.961 0.540039 119.494 0.540039C121.213 0.540039 122.814 0.881836 124.299 1.56543C125.793 2.23926 127.038 3.18652 128.034 4.40723C129.04 5.61816 129.704 7 130.026 8.55273H125.339C124.89 7.42969 124.147 6.54102 123.112 5.88672C122.077 5.22266 120.9 4.89062 119.582 4.89062C117.727 4.89062 116.213 5.50586 115.041 6.73633C113.879 7.9668 113.298 9.56348 113.298 11.5264C113.298 13.4795 113.874 15.0664 115.026 16.2871C116.179 17.5078 117.697 18.1182 119.582 18.1182C120.939 18.1182 122.155 17.791 123.229 17.1367C124.304 16.4727 125.036 15.5986 125.427 14.5146H119.128V11.0283ZM149.245 13.8408C149.245 14.2803 149.216 14.71 149.157 15.1299H136.896C137.082 16.2334 137.521 17.083 138.215 17.6787C138.918 18.2646 139.802 18.5576 140.866 18.5576C141.618 18.5576 142.292 18.3916 142.888 18.0596C143.493 17.7275 143.962 17.2686 144.294 16.6826H148.894C148.308 18.4502 147.292 19.8564 145.847 20.9014C144.401 21.9365 142.741 22.4541 140.866 22.4541C139.294 22.4541 137.863 22.083 136.574 21.3408C135.295 20.5889 134.289 19.5586 133.557 18.25C132.824 16.9414 132.458 15.4912 132.458 13.8994C132.458 12.2979 132.819 10.8428 133.542 9.53418C134.274 8.22559 135.28 7.2002 136.56 6.45801C137.849 5.71582 139.284 5.34473 140.866 5.34473C142.487 5.34473 143.942 5.73047 145.231 6.50195C146.521 7.26367 147.512 8.28906 148.205 9.57812C148.898 10.8672 149.245 12.2881 149.245 13.8408ZM140.866 9.08008C139.899 9.08008 139.079 9.34863 138.405 9.88574C137.731 10.4229 137.268 11.1748 137.014 12.1416H144.865C144.562 11.1553 144.064 10.3984 143.371 9.87109C142.688 9.34375 141.853 9.08008 140.866 9.08008ZM160.041 18.1035H162.033V22H158.928C157.15 22 155.744 21.4873 154.709 20.4619C153.684 19.4268 153.171 18.0107 153.171 16.2139V9.31445H150.241V8.37695L156.643 1.56543H157.478V5.79883H161.945V9.31445H157.551V15.6279C157.551 16.4189 157.766 17.0293 158.195 17.459C158.625 17.8887 159.24 18.1035 160.041 18.1035ZM171.115 2.04883H178.439V22H174.221V5.81348H171.115V2.04883ZM203.02 5.22754H195.021V9.8418H202.243V13.958H195.021V22H190.48V0.994141H203.02V5.22754ZM214.138 5.71094H215.573V9.8418H213.684C212.453 9.8418 211.569 10.1348 211.032 10.7207C210.505 11.2969 210.241 12.249 210.241 13.5771V22H205.861V5.79883H208.659L209.436 7.79102C210.549 6.4043 212.116 5.71094 214.138 5.71094ZM233.415 13.8408C233.415 14.2803 233.386 14.71 233.327 15.1299H221.066C221.252 16.2334 221.691 17.083 222.385 17.6787C223.088 18.2646 223.972 18.5576 225.036 18.5576C225.788 18.5576 226.462 18.3916 227.058 18.0596C227.663 17.7275 228.132 17.2686 228.464 16.6826H233.063C232.478 18.4502 231.462 19.8564 230.017 20.9014C228.571 21.9365 226.911 22.4541 225.036 22.4541C223.464 22.4541 222.033 22.083 220.744 21.3408C219.465 20.5889 218.459 19.5586 217.727 18.25C216.994 16.9414 216.628 15.4912 216.628 13.8994C216.628 12.2979 216.989 10.8428 217.712 9.53418C218.444 8.22559 219.45 7.2002 220.729 6.45801C222.019 5.71582 223.454 5.34473 225.036 5.34473C226.657 5.34473 228.112 5.73047 229.401 6.50195C230.69 7.26367 231.682 8.28906 232.375 9.57812C233.068 10.8672 233.415 12.2881 233.415 13.8408ZM225.036 9.08008C224.069 9.08008 223.249 9.34863 222.575 9.88574C221.901 10.4229 221.438 11.1748 221.184 12.1416H229.035C228.732 11.1553 228.234 10.3984 227.541 9.87109C226.857 9.34375 226.022 9.08008 225.036 9.08008ZM252.253 13.8408C252.253 14.2803 252.224 14.71 252.165 15.1299H239.904C240.09 16.2334 240.529 17.083 241.223 17.6787C241.926 18.2646 242.81 18.5576 243.874 18.5576C244.626 18.5576 245.3 18.3916 245.896 18.0596C246.501 17.7275 246.97 17.2686 247.302 16.6826H251.901C251.315 18.4502 250.3 19.8564 248.854 20.9014C247.409 21.9365 245.749 22.4541 243.874 22.4541C242.302 22.4541 240.871 22.083 239.582 21.3408C238.303 20.5889 237.297 19.5586 236.564 18.25C235.832 16.9414 235.466 15.4912 235.466 13.8994C235.466 12.2979 235.827 10.8428 236.55 9.53418C237.282 8.22559 238.288 7.2002 239.567 6.45801C240.856 5.71582 242.292 5.34473 243.874 5.34473C245.495 5.34473 246.95 5.73047 248.239 6.50195C249.528 7.26367 250.52 8.28906 251.213 9.57812C251.906 10.8672 252.253 12.2881 252.253 13.8408ZM243.874 9.08008C242.907 9.08008 242.087 9.34863 241.413 9.88574C240.739 10.4229 240.275 11.1748 240.021 12.1416H247.873C247.57 11.1553 247.072 10.3984 246.379 9.87109C245.695 9.34375 244.86 9.08008 243.874 9.08008Z" fill="#197AFF"/>
</svg>
