<svg width="280" height="44" viewBox="0 0 280 44" fill="none" xmlns="http://www.w3.org/2000/svg">
<path d="M23.375 25.4062C23.375 27.2708 22.8229 28.7865 21.7188 29.9531C20.625 31.1198 19.125 31.8802 17.2188 32.2344V34.4688H12.4375V32.2344C10.4583 31.8698 8.91146 31.0677 7.79688 29.8281C6.68229 28.5885 6.125 27.0052 6.125 25.0781H12.2344C12.2344 25.7656 12.474 26.3021 12.9531 26.6875C13.4427 27.0625 14.0417 27.25 14.75 27.25C15.4167 27.25 15.9844 27.0938 16.4531 26.7812C16.9323 26.4688 17.1719 26.0469 17.1719 25.5156C17.1719 25.2969 17.1302 25.099 17.0469 24.9219C16.974 24.7448 16.8385 24.5885 16.6406 24.4531C16.4531 24.3073 16.276 24.1875 16.1094 24.0938C15.9427 23.9896 15.6771 23.8854 15.3125 23.7812C14.9583 23.6667 14.6771 23.5833 14.4688 23.5312C14.2708 23.4792 13.9427 23.3958 13.4844 23.2812C13.0156 23.1667 12.6562 23.0781 12.4062 23.0156C12.1667 22.9531 11.8125 22.849 11.3438 22.7031C10.8854 22.5573 10.5208 22.4271 10.25 22.3125C9.98958 22.1875 9.66146 22.0208 9.26562 21.8125C8.86979 21.6042 8.55208 21.3958 8.3125 21.1875C8.08333 20.9688 7.83333 20.7031 7.5625 20.3906C7.29167 20.0677 7.07812 19.7344 6.92188 19.3906C6.77604 19.0365 6.65104 18.6302 6.54688 18.1719C6.45312 17.7031 6.40625 17.2031 6.40625 16.6719C6.40625 14.9531 6.91146 13.5417 7.92188 12.4375C8.94271 11.3333 10.375 10.6146 12.2188 10.2812V8.17188H17V10.3125C18.8229 10.6667 20.224 11.4219 21.2031 12.5781C22.1927 13.7344 22.6875 15.2031 22.6875 16.9844L16.75 17C16.75 16.3958 16.5365 15.9323 16.1094 15.6094C15.6927 15.2865 15.1615 15.125 14.5156 15.125C13.9427 15.125 13.4479 15.2448 13.0312 15.4844C12.625 15.7135 12.4219 16.0469 12.4219 16.4844C12.4219 16.724 12.4896 16.9427 12.625 17.1406C12.7604 17.3385 12.9167 17.5 13.0938 17.625C13.2708 17.75 13.5469 17.8802 13.9219 18.0156C14.3073 18.151 14.6302 18.2552 14.8906 18.3281C15.151 18.401 15.5469 18.5052 16.0781 18.6406H16.0938C17.9167 19.1094 19.25 19.5625 20.0938 20C22.2188 21.1042 23.3125 22.8333 23.375 25.1875V25.4062ZM25.4375 10.7188H34.3125V32H28.5938V15.5469H25.4375V10.7188ZM48.5 18.5312C50.0312 18.9167 51.2448 19.6927 52.1406 20.8594C53.0469 22.026 53.5 23.4271 53.5 25.0625C53.5 27.2292 52.7448 29.0104 51.2344 30.4062C49.724 31.8021 47.8021 32.5 45.4688 32.5C43.1875 32.5 41.3229 31.8229 39.875 30.4688C38.4375 29.1042 37.6875 27.3177 37.625 25.1094H43.0938C43.125 25.8594 43.3542 26.4635 43.7812 26.9219C44.2188 27.3698 44.7865 27.5938 45.4844 27.5938C46.2135 27.5938 46.8073 27.3542 47.2656 26.875C47.7344 26.3854 47.9688 25.75 47.9688 24.9688C47.9688 24.1875 47.724 23.5729 47.2344 23.125C46.7448 22.6771 46.0833 22.4531 45.25 22.4531H41.8438V21.2656L45.2969 15.5781H38.1562V10.7188H52.7656V11.7031L48.5 18.5312ZM63.7812 10.1719C66.2917 10.1719 68.3281 10.901 69.8906 12.3594C71.4635 13.8177 72.25 15.7083 72.25 18.0312C72.25 19.1458 72.0573 20.2812 71.6719 21.4375C71.2969 22.5833 70.6771 23.8906 69.8125 25.3594L65.8906 32H59.75C60.2188 31.2188 60.9219 30.0417 61.8594 28.4688C62.8073 26.8854 63.5156 25.7031 63.9844 24.9219C63.526 24.9844 63.0573 25.0156 62.5781 25.0156C60.4427 25.0156 58.7031 24.3698 57.3594 23.0781C56.0156 21.7865 55.3438 20.1146 55.3438 18.0625C55.3438 15.7292 56.125 13.8333 57.6875 12.375C59.25 10.9062 61.2812 10.1719 63.7812 10.1719ZM61.5469 20.2656C62.1302 20.8281 62.8802 21.1094 63.7969 21.1094C64.7135 21.1094 65.4635 20.8281 66.0469 20.2656C66.6302 19.6927 66.9219 18.9583 66.9219 18.0625C66.9219 17.1667 66.625 16.4375 66.0312 15.875C65.4479 15.3125 64.7031 15.0312 63.7969 15.0312C62.8802 15.0312 62.1302 15.3125 61.5469 15.875C60.9635 16.4375 60.6719 17.1667 60.6719 18.0625C60.6719 18.9688 60.9635 19.7031 61.5469 20.2656ZM73.4219 32V26.4688H79.1875V32H73.4219ZM88.3125 10.1719C90.8229 10.1719 92.8594 10.901 94.4219 12.3594C95.9948 13.8177 96.7812 15.7083 96.7812 18.0312C96.7812 19.1458 96.5885 20.2812 96.2031 21.4375C95.8281 22.5833 95.2083 23.8906 94.3438 25.3594L90.4219 32H84.2812C84.75 31.2188 85.4531 30.0417 86.3906 28.4688C87.3385 26.8854 88.0469 25.7031 88.5156 24.9219C88.0573 24.9844 87.5885 25.0156 87.1094 25.0156C84.974 25.0156 83.2344 24.3698 81.8906 23.0781C80.5469 21.7865 79.875 20.1146 79.875 18.0625C79.875 15.7292 80.6562 13.8333 82.2188 12.375C83.7812 10.9062 85.8125 10.1719 88.3125 10.1719ZM86.0781 20.2656C86.6615 20.8281 87.4115 21.1094 88.3281 21.1094C89.2448 21.1094 89.9948 20.8281 90.5781 20.2656C91.1615 19.6927 91.4531 18.9583 91.4531 18.0625C91.4531 17.1667 91.1562 16.4375 90.5625 15.875C89.9792 15.3125 89.2344 15.0312 88.3281 15.0312C87.4115 15.0312 86.6615 15.3125 86.0781 15.875C85.4948 16.4375 85.2031 17.1667 85.2031 18.0625C85.2031 18.9688 85.4948 19.7031 86.0781 20.2656ZM115.234 29.5312C113.547 31.5521 111.286 32.5625 108.453 32.5625C105.62 32.5625 103.354 31.5521 101.656 29.5312C99.9688 27.5 99.125 24.7865 99.125 21.3906C99.125 17.9844 99.9688 15.2708 101.656 13.25C103.354 11.2188 105.62 10.2031 108.453 10.2031C111.286 10.2031 113.547 11.2188 115.234 13.25C116.922 15.2708 117.766 17.9844 117.766 21.3906C117.766 24.7865 116.922 27.5 115.234 29.5312ZM105.875 25.9062C106.479 26.9583 107.339 27.4844 108.453 27.4844C109.568 27.4844 110.422 26.9635 111.016 25.9219C111.62 24.8698 111.922 23.3646 111.922 21.4062C111.922 19.4479 111.62 17.9375 111.016 16.875C110.422 15.8125 109.568 15.2812 108.453 15.2812C107.339 15.2812 106.479 15.8125 105.875 16.875C105.271 17.9271 104.969 19.4323 104.969 21.3906C104.969 23.349 105.271 24.8542 105.875 25.9062Z" fill="#11346F"/>
<path d="M167.594 26.5156C167.594 28.3906 167.016 29.8958 165.859 31.0312C164.714 32.1667 163.193 32.8802 161.297 33.1719V35.4219H157.609V33.1875C155.599 32.8854 154.005 32.1042 152.828 30.8438C151.661 29.5833 151.078 27.9688 151.078 26H155.781C155.781 26.9479 156.13 27.6823 156.828 28.2031C157.526 28.7135 158.38 28.9688 159.391 28.9688C160.318 28.9688 161.125 28.75 161.812 28.3125C162.51 27.875 162.859 27.2917 162.859 26.5625C162.859 25.7604 162.354 25.1406 161.344 24.7031C160.865 24.4948 159.948 24.2292 158.594 23.9062C156.76 23.4688 155.438 23.0521 154.625 22.6562C152.677 21.7083 151.609 20.2292 151.422 18.2188C151.401 17.9896 151.391 17.7552 151.391 17.5156C151.391 15.776 151.917 14.3698 152.969 13.2969C154.021 12.224 155.479 11.5521 157.344 11.2812V9.20312H161.062V11.2812C162.948 11.5729 164.401 12.3125 165.422 13.5C166.443 14.6771 166.953 16.1927 166.953 18.0469H162.344C162.344 17.1823 162.031 16.5208 161.406 16.0625C160.792 15.6042 160.016 15.375 159.078 15.375C158.245 15.375 157.526 15.5417 156.922 15.875C156.328 16.2083 156.031 16.6875 156.031 17.3125C156.031 17.5521 156.073 17.7708 156.156 17.9688C156.24 18.1667 156.385 18.3438 156.594 18.5C156.802 18.6562 156.995 18.7917 157.172 18.9062C157.349 19.0104 157.625 19.125 158 19.25C158.385 19.3646 158.688 19.4531 158.906 19.5156C159.135 19.5677 159.495 19.6562 159.984 19.7812C160.068 19.8021 160.13 19.8177 160.172 19.8281C160.661 19.9531 161.036 20.0521 161.297 20.125C161.568 20.1875 161.943 20.2917 162.422 20.4375C162.901 20.5833 163.281 20.7188 163.562 20.8438C163.854 20.9688 164.203 21.1406 164.609 21.3594C165.016 21.5677 165.344 21.7812 165.594 22C165.844 22.2188 166.109 22.4896 166.391 22.8125C166.672 23.125 166.891 23.4583 167.047 23.8125C167.203 24.1667 167.333 24.5781 167.438 25.0469C167.542 25.5052 167.594 25.9948 167.594 26.5156ZM178.312 28.7031H184.812V33H169.891V32C172.943 28.4792 175.125 25.8958 176.438 24.25C177.75 22.6042 178.635 21.349 179.094 20.4844C179.562 19.6198 179.797 18.7969 179.797 18.0156C179.797 17.276 179.568 16.6823 179.109 16.2344C178.661 15.776 178.078 15.5469 177.359 15.5469C176.609 15.5469 176.005 15.7812 175.547 16.25C175.099 16.7083 174.875 17.3177 174.875 18.0781V18.4844H170.297V18.0156C170.297 16.0365 170.932 14.4219 172.203 13.1719C173.484 11.9115 175.177 11.2812 177.281 11.2812C179.375 11.2812 181.083 11.9062 182.406 13.1562C183.74 14.4062 184.406 16.0104 184.406 17.9688C184.406 19.3333 183.99 20.7708 183.156 22.2812C182.323 23.7812 180.708 25.9219 178.312 28.7031ZM202.812 30.4219C201.26 32.401 199.161 33.3906 196.516 33.3906C193.87 33.3906 191.771 32.401 190.219 30.4219C188.667 28.4323 187.891 25.7396 187.891 22.3438C187.891 18.9375 188.661 16.25 190.203 14.2812C191.745 12.3021 193.849 11.3125 196.516 11.3125C199.182 11.3125 201.286 12.3021 202.828 14.2812C204.37 16.25 205.141 18.9375 205.141 22.3438C205.141 25.7396 204.365 28.4323 202.812 30.4219ZM193.531 27.375C194.219 28.5417 195.214 29.125 196.516 29.125C197.818 29.125 198.812 28.5469 199.5 27.3906C200.188 26.2344 200.531 24.5625 200.531 22.375C200.531 20.1875 200.182 18.5104 199.484 17.3438C198.786 16.1667 197.797 15.5781 196.516 15.5781C195.214 15.5781 194.219 16.1615 193.531 17.3281C192.844 18.4844 192.5 20.1562 192.5 22.3438C192.5 24.5312 192.844 26.2083 193.531 27.375ZM215.516 11.2812C217.901 11.2812 219.844 11.9948 221.344 13.4219C222.844 14.849 223.594 16.6927 223.594 18.9531C223.594 19.9531 223.427 20.9844 223.094 22.0469C222.771 23.099 222.203 24.3177 221.391 25.7031L217.141 33H212.109C214.411 29.0625 215.87 26.5625 216.484 25.5C215.849 25.6979 215.188 25.7969 214.5 25.7969C212.448 25.7969 210.771 25.1615 209.469 23.8906C208.167 22.6094 207.516 20.9635 207.516 18.9531C207.516 16.7135 208.266 14.875 209.766 13.4375C211.266 12 213.182 11.2812 215.516 11.2812ZM215.547 22.4375C216.599 22.4375 217.469 22.1146 218.156 21.4688C218.844 20.8229 219.188 19.9844 219.188 18.9531C219.188 17.9323 218.844 17.099 218.156 16.4531C217.469 15.7969 216.599 15.4688 215.547 15.4688C214.484 15.4688 213.609 15.7969 212.922 16.4531C212.245 17.099 211.906 17.9323 211.906 18.9531C211.906 19.9844 212.245 20.8229 212.922 21.4688C213.599 22.1146 214.474 22.4375 215.547 22.4375ZM225.109 33V28H230.047V33H225.109ZM246.562 21.7031C248.406 22.8802 249.328 24.5052 249.328 26.5781C249.328 28.5677 248.583 30.2031 247.094 31.4844C245.604 32.7552 243.698 33.3906 241.375 33.3906C239.042 33.3906 237.135 32.7604 235.656 31.5C234.177 30.2292 233.438 28.5885 233.438 26.5781C233.438 24.5052 234.359 22.8802 236.203 21.7031C234.745 20.5573 234.016 19.1094 234.016 17.3594C234.016 15.5781 234.698 14.1198 236.062 12.9844C237.438 11.849 239.214 11.2812 241.391 11.2812C243.568 11.2812 245.333 11.849 246.688 12.9844C248.052 14.1094 248.734 15.5677 248.734 17.3594C248.734 19.1615 248.01 20.6094 246.562 21.7031ZM243.453 15.7031C242.922 15.2344 242.234 15 241.391 15C240.547 15 239.849 15.2396 239.297 15.7188C238.755 16.1875 238.484 16.776 238.484 17.4844C238.484 18.2031 238.755 18.8021 239.297 19.2812C239.849 19.75 240.547 19.9844 241.391 19.9844C242.234 19.9844 242.922 19.75 243.453 19.2812C243.995 18.8021 244.266 18.2031 244.266 17.4844C244.266 16.7656 243.995 16.1719 243.453 15.7031ZM238.938 28.6562C239.562 29.1979 240.38 29.4688 241.391 29.4688C242.401 29.4688 243.214 29.1979 243.828 28.6562C244.453 28.1042 244.766 27.3906 244.766 26.5156C244.766 25.6406 244.453 24.9323 243.828 24.3906C243.214 23.8385 242.401 23.5625 241.391 23.5625C240.38 23.5625 239.562 23.8385 238.938 24.3906C238.312 24.9323 238 25.6406 238 26.5156C238 27.3906 238.312 28.1042 238.938 28.6562ZM259.359 19.1562C261.568 19.1562 263.385 19.8177 264.812 21.1406C266.25 22.4531 266.969 24.1198 266.969 26.1406C266.969 28.2135 266.255 29.9427 264.828 31.3281C263.401 32.7031 261.63 33.3906 259.516 33.3906C257.37 33.3906 255.589 32.724 254.172 31.3906C252.766 30.0469 252.057 28.3542 252.047 26.3125H256.656C256.667 27.125 256.938 27.7969 257.469 28.3281C258.01 28.8594 258.693 29.125 259.516 29.125C260.328 29.125 261.005 28.8438 261.547 28.2812C262.089 27.7083 262.359 26.9948 262.359 26.1406C262.359 25.2344 262.062 24.4948 261.469 23.9219C260.875 23.3385 260.115 23.0469 259.188 23.0469H253.219L252.781 22.4688L253.984 11.7188H265.484V15.8125H257.594L257.219 19.1562H259.359Z" fill="#93A2BB"/>
<line x1="280" y1="22" x2="139" y2="22" stroke="#647AA0" stroke-width="2"/>
</svg>
