<svg width="331" height="85" viewBox="0 0 331 85" fill="none" xmlns="http://www.w3.org/2000/svg">
<path d="M85.2402 61.2617C86.0654 61.2617 86.7446 61.5199 87.2778 62.0361C87.8153 62.5524 88.084 63.221 88.084 64.042C88.084 64.9518 87.7793 65.6987 87.1699 66.2827C86.5605 66.8667 85.7798 67.1587 84.8276 67.1587C83.8586 67.1587 83.0693 66.8688 82.46 66.2891C81.8506 65.7093 81.5459 64.9603 81.5459 64.042C81.5459 63.6357 81.6115 63.2189 81.7427 62.7915C81.8781 62.3599 82.1108 61.8626 82.4409 61.2998L84.1611 58.3418H86.1987C86.0083 58.6676 85.7142 59.1712 85.3164 59.8525C84.9229 60.5296 84.6287 61.0396 84.4341 61.3823C84.6922 61.3019 84.9609 61.2617 85.2402 61.2617ZM84.8149 65.4321C85.2212 65.4321 85.5555 65.3031 85.8179 65.0449C86.0802 64.7868 86.2114 64.4525 86.2114 64.042C86.2114 63.6273 86.0802 63.2909 85.8179 63.0327C85.5597 62.7703 85.2254 62.6392 84.8149 62.6392C84.4129 62.6392 84.0786 62.7703 83.812 63.0327C83.5496 63.2951 83.4185 63.6315 83.4185 64.042C83.4185 64.4482 83.5496 64.7826 83.812 65.0449C84.0786 65.3031 84.4129 65.4321 84.8149 65.4321ZM95.7837 67.1968C95.0685 67.1968 94.4211 67.036 93.8413 66.7144C93.2616 66.3927 92.8066 65.9484 92.4766 65.3813C92.1507 64.8143 91.9878 64.1838 91.9878 63.4897C91.9878 62.7873 92.1507 62.1546 92.4766 61.5918C92.8066 61.0247 93.2616 60.5825 93.8413 60.2651C94.4211 59.9435 95.0685 59.7827 95.7837 59.7827C96.4946 59.7827 97.14 59.9435 97.7197 60.2651C98.2995 60.5825 98.7544 61.0247 99.0845 61.5918C99.4146 62.1589 99.5796 62.7915 99.5796 63.4897C99.5796 64.1838 99.4146 64.8143 99.0845 65.3813C98.7544 65.9484 98.2995 66.3927 97.7197 66.7144C97.14 67.036 96.4946 67.1968 95.7837 67.1968ZM94.438 64.8799C94.7892 65.2354 95.2378 65.4131 95.7837 65.4131C96.3296 65.4131 96.7782 65.2354 97.1294 64.8799C97.4806 64.5202 97.6562 64.0568 97.6562 63.4897C97.6562 62.9227 97.4806 62.4614 97.1294 62.106C96.7782 61.7463 96.3296 61.5664 95.7837 61.5664C95.2378 61.5664 94.7892 61.7463 94.438 62.106C94.0868 62.4614 93.9111 62.9227 93.9111 63.4897C93.9111 64.0568 94.0868 64.5202 94.438 64.8799ZM104.531 59.9414H105.153V61.7314H104.334C103.801 61.7314 103.418 61.8584 103.185 62.1123C102.957 62.362 102.842 62.7746 102.842 63.3501V67H100.944V59.9795H102.157L102.493 60.8428C102.976 60.2419 103.655 59.9414 104.531 59.9414ZM111.228 57.4468H113.125V67H111.723L111.5 66.416C110.878 66.945 110.144 67.2095 109.298 67.2095C108.236 67.2095 107.355 66.8561 106.657 66.1494C105.959 65.4427 105.61 64.5562 105.61 63.4897C105.61 62.965 105.703 62.4741 105.889 62.0171C106.075 61.5558 106.329 61.1623 106.651 60.8364C106.977 60.5106 107.368 60.2546 107.825 60.0684C108.282 59.8779 108.773 59.7827 109.298 59.7827C110.013 59.7827 110.656 59.9753 111.228 60.3604V57.4468ZM108.085 64.8672C108.449 65.2311 108.906 65.4131 109.457 65.4131C110.007 65.4131 110.462 65.2311 110.821 64.8672C111.185 64.499 111.367 64.0399 111.367 63.4897C111.367 62.9396 111.185 62.4826 110.821 62.1187C110.462 61.7505 110.007 61.5664 109.457 61.5664C108.906 61.5664 108.449 61.7484 108.085 62.1123C107.726 62.4762 107.546 62.9354 107.546 63.4897C107.546 64.0441 107.726 64.5033 108.085 64.8672ZM121.758 63.4644C121.758 63.6548 121.746 63.841 121.72 64.0229H116.407C116.488 64.5011 116.678 64.8693 116.979 65.1274C117.283 65.3813 117.666 65.5083 118.127 65.5083C118.453 65.5083 118.745 65.4364 119.003 65.2925C119.266 65.1486 119.469 64.9497 119.613 64.6958H121.606C121.352 65.4618 120.912 66.0711 120.286 66.5239C119.659 66.9725 118.94 67.1968 118.127 67.1968C117.446 67.1968 116.826 67.036 116.268 66.7144C115.713 66.3885 115.277 65.9421 114.96 65.375C114.643 64.8079 114.484 64.1795 114.484 63.4897C114.484 62.7957 114.64 62.1652 114.954 61.5981C115.271 61.0311 115.707 60.5868 116.261 60.2651C116.82 59.9435 117.442 59.7827 118.127 59.7827C118.83 59.7827 119.46 59.9499 120.019 60.2842C120.578 60.6143 121.007 61.0586 121.308 61.6172C121.608 62.1758 121.758 62.7915 121.758 63.4644ZM118.127 61.4014C117.708 61.4014 117.353 61.5177 117.061 61.7505C116.769 61.9832 116.568 62.3091 116.458 62.728H119.86C119.729 62.3006 119.513 61.9727 119.213 61.7441C118.917 61.5156 118.555 61.4014 118.127 61.4014ZM126.697 59.9414H127.319V61.7314H126.5C125.967 61.7314 125.584 61.8584 125.351 62.1123C125.123 62.362 125.008 62.7746 125.008 63.3501V67H123.11V59.9795H124.323L124.659 60.8428C125.142 60.2419 125.821 59.9414 126.697 59.9414ZM130.842 67.1968C129.962 67.1968 129.251 66.9683 128.709 66.5112C128.172 66.05 127.901 65.4427 127.896 64.6895H129.744C129.748 64.9899 129.856 65.2205 130.067 65.3813C130.283 65.5422 130.567 65.6226 130.918 65.6226C131.197 65.6226 131.432 65.5612 131.623 65.4385C131.817 65.3158 131.915 65.1423 131.915 64.918C131.915 64.8037 131.881 64.7043 131.813 64.6196C131.75 64.535 131.648 64.4652 131.508 64.4102C131.369 64.3509 131.231 64.3065 131.096 64.2769C130.96 64.243 130.783 64.207 130.562 64.1689C130.364 64.1351 130.196 64.1055 130.061 64.0801C129.926 64.0505 129.761 64.0081 129.566 63.9531C129.375 63.8981 129.215 63.8389 129.083 63.7754C128.952 63.7077 128.813 63.6188 128.665 63.5088C128.521 63.3988 128.404 63.2782 128.315 63.147C128.231 63.0116 128.159 62.8486 128.1 62.6582C128.045 62.4678 128.017 62.2583 128.017 62.0298C128.017 61.3654 128.277 60.8258 128.798 60.4111C129.318 59.9922 130 59.7827 130.842 59.7827C131.688 59.7827 132.367 59.9985 132.879 60.4302C133.391 60.8576 133.65 61.4225 133.654 62.125H131.851C131.847 61.8499 131.752 61.6426 131.565 61.5029C131.383 61.3633 131.125 61.2935 130.791 61.2935C130.499 61.2935 130.268 61.3548 130.099 61.4775C129.934 61.6003 129.852 61.7632 129.852 61.9663C129.852 62.0425 129.864 62.1123 129.89 62.1758C129.919 62.235 129.968 62.2879 130.036 62.3345C130.108 62.3768 130.173 62.4149 130.232 62.4487C130.296 62.4784 130.389 62.5101 130.512 62.5439C130.639 62.5736 130.74 62.5968 130.816 62.6138C130.897 62.6265 131.017 62.6476 131.178 62.6772C131.86 62.8 132.35 62.9269 132.651 63.0581C133.408 63.3966 133.787 63.9891 133.787 64.8354C133.787 65.5506 133.518 66.124 132.981 66.5557C132.444 66.9831 131.73 67.1968 130.842 67.1968ZM144.02 59.9668H145.441V66.9873H143.95L143.785 66.3589C143.146 66.9175 142.388 67.1968 141.512 67.1968C140.818 67.1968 140.19 67.036 139.627 66.7144C139.064 66.3927 138.624 65.9484 138.307 65.3813C137.989 64.8101 137.831 64.1753 137.831 63.4771C137.831 62.783 137.989 62.1546 138.307 61.5918C138.624 61.0247 139.064 60.5825 139.627 60.2651C140.19 59.9435 140.818 59.7827 141.512 59.7827C142.405 59.7827 143.173 60.0684 143.816 60.6396L144.02 59.9668ZM140.293 64.8545C140.657 65.2184 141.114 65.4004 141.665 65.4004C142.215 65.4004 142.67 65.2184 143.029 64.8545C143.393 64.4906 143.575 64.0314 143.575 63.4771C143.575 62.9227 143.393 62.4635 143.029 62.0996C142.67 61.7357 142.215 61.5537 141.665 61.5537C141.114 61.5537 140.657 61.7378 140.293 62.106C139.934 62.4699 139.754 62.9269 139.754 63.4771C139.754 64.0272 139.934 64.4863 140.293 64.8545ZM150.697 65.3115H151.561V67H150.215C149.445 67 148.835 66.7778 148.387 66.3335C147.942 65.8849 147.72 65.2713 147.72 64.4927V61.5029H146.451V61.0967L149.225 58.145H149.586V59.9795H151.522V61.5029H149.618V64.2388C149.618 64.5815 149.711 64.846 149.897 65.0322C150.084 65.2184 150.35 65.3115 150.697 65.3115ZM159.165 65.3115H160.028V67H158.683C157.912 67 157.303 66.7778 156.854 66.3335C156.41 65.8849 156.188 65.2713 156.188 64.4927V61.5029H154.918V61.0967L157.692 58.145H158.054V59.9795H159.99V61.5029H158.086V64.2388C158.086 64.5815 158.179 64.846 158.365 65.0322C158.551 65.2184 158.818 65.3115 159.165 65.3115ZM165.341 59.8145C166.133 59.8145 166.759 60.0768 167.22 60.6016C167.686 61.1263 167.918 61.8372 167.918 62.7344V67H166.021V63.0518C166.021 62.5186 165.921 62.1229 165.722 61.8647C165.528 61.6066 165.219 61.4775 164.795 61.4775C164.317 61.4775 163.934 61.6426 163.646 61.9727C163.363 62.2985 163.221 62.745 163.221 63.312V67H161.323V57.4468H163.221V60.6333C163.792 60.0874 164.499 59.8145 165.341 59.8145ZM169.651 59.0464V57.2817H171.543V59.0464H169.651ZM169.651 67V59.9795H171.549V67H169.651ZM175.859 67.1968C174.979 67.1968 174.268 66.9683 173.727 66.5112C173.189 66.05 172.918 65.4427 172.914 64.6895H174.761C174.765 64.9899 174.873 65.2205 175.085 65.3813C175.301 65.5422 175.584 65.6226 175.936 65.6226C176.215 65.6226 176.45 65.5612 176.64 65.4385C176.835 65.3158 176.932 65.1423 176.932 64.918C176.932 64.8037 176.898 64.7043 176.831 64.6196C176.767 64.535 176.666 64.4652 176.526 64.4102C176.386 64.3509 176.249 64.3065 176.113 64.2769C175.978 64.243 175.8 64.207 175.58 64.1689C175.381 64.1351 175.214 64.1055 175.079 64.0801C174.943 64.0505 174.778 64.0081 174.583 63.9531C174.393 63.8981 174.232 63.8389 174.101 63.7754C173.97 63.7077 173.83 63.6188 173.682 63.5088C173.538 63.3988 173.422 63.2782 173.333 63.147C173.248 63.0116 173.176 62.8486 173.117 62.6582C173.062 62.4678 173.035 62.2583 173.035 62.0298C173.035 61.3654 173.295 60.8258 173.815 60.4111C174.336 59.9922 175.017 59.7827 175.859 59.7827C176.706 59.7827 177.385 59.9985 177.897 60.4302C178.409 60.8576 178.667 61.4225 178.671 62.125H176.869C176.864 61.8499 176.769 61.6426 176.583 61.5029C176.401 61.3633 176.143 61.2935 175.809 61.2935C175.517 61.2935 175.286 61.3548 175.117 61.4775C174.952 61.6003 174.869 61.7632 174.869 61.9663C174.869 62.0425 174.882 62.1123 174.907 62.1758C174.937 62.235 174.986 62.2879 175.053 62.3345C175.125 62.3768 175.191 62.4149 175.25 62.4487C175.313 62.4784 175.407 62.5101 175.529 62.5439C175.656 62.5736 175.758 62.5968 175.834 62.6138C175.914 62.6265 176.035 62.6476 176.196 62.6772C176.877 62.8 177.368 62.9269 177.668 63.0581C178.426 63.3966 178.805 63.9891 178.805 64.8354C178.805 65.5506 178.536 66.124 177.999 66.5557C177.461 66.9831 176.748 67.1968 175.859 67.1968ZM187.139 59.7827C187.833 59.7827 188.459 59.9435 189.018 60.2651C189.581 60.5825 190.021 61.0247 190.338 61.5918C190.656 62.1589 190.814 62.7915 190.814 63.4897C190.814 64.188 190.656 64.8228 190.338 65.394C190.021 65.9611 189.581 66.4054 189.018 66.7271C188.459 67.0487 187.833 67.2095 187.139 67.2095C186.428 67.2095 185.785 67.0127 185.209 66.6191V69.5327H183.312V59.9795H184.562L184.886 60.6206C185.516 60.062 186.267 59.7827 187.139 59.7827ZM185.609 64.8672C185.973 65.2311 186.43 65.4131 186.98 65.4131C187.531 65.4131 187.986 65.2311 188.345 64.8672C188.709 64.5033 188.891 64.0441 188.891 63.4897C188.891 62.9354 188.709 62.4762 188.345 62.1123C187.986 61.7484 187.531 61.5664 186.98 61.5664C186.43 61.5664 185.973 61.7505 185.609 62.1187C185.25 62.4826 185.07 62.9396 185.07 63.4897C185.07 64.0399 185.25 64.499 185.609 64.8672ZM195.759 59.9414H196.381V61.7314H195.562C195.029 61.7314 194.646 61.8584 194.414 62.1123C194.185 62.362 194.071 62.7746 194.071 63.3501V67H192.173V59.9795H193.385L193.722 60.8428C194.204 60.2419 194.883 59.9414 195.759 59.9414ZM197.467 59.0464V57.2817H199.358V59.0464H197.467ZM197.467 67V59.9795H199.365V67H197.467ZM204.449 67.1968C203.929 67.1968 203.438 67.1016 202.977 66.9111C202.515 66.7165 202.12 66.4541 201.79 66.124C201.459 65.7939 201.199 65.3983 201.009 64.937C200.818 64.4757 200.723 63.987 200.723 63.4707C200.723 62.9544 200.818 62.4678 201.009 62.0107C201.199 61.5537 201.459 61.1623 201.79 60.8364C202.12 60.5106 202.515 60.2546 202.977 60.0684C203.442 59.8779 203.937 59.7827 204.462 59.7827C205.368 59.7827 206.144 60.0472 206.792 60.5762C207.443 61.1009 207.856 61.797 208.029 62.6646H206.144C205.992 62.3175 205.765 62.0488 205.465 61.8584C205.164 61.6637 204.826 61.5664 204.449 61.5664C203.937 61.5664 203.508 61.7505 203.161 62.1187C202.818 62.4826 202.646 62.9354 202.646 63.4771C202.646 64.0187 202.82 64.4779 203.167 64.8545C203.514 65.2269 203.941 65.4131 204.449 65.4131C204.834 65.4131 205.173 65.3115 205.465 65.1084C205.757 64.9053 205.983 64.6154 206.144 64.2388H208.055C207.89 65.1232 207.475 65.8384 206.811 66.3843C206.15 66.9259 205.363 67.1968 204.449 67.1968ZM216.123 63.4644C216.123 63.6548 216.11 63.841 216.084 64.0229H210.771C210.852 64.5011 211.042 64.8693 211.343 65.1274C211.647 65.3813 212.03 65.5083 212.492 65.5083C212.818 65.5083 213.11 65.4364 213.368 65.2925C213.63 65.1486 213.833 64.9497 213.977 64.6958H215.97C215.716 65.4618 215.276 66.0711 214.65 66.5239C214.024 66.9725 213.304 67.1968 212.492 67.1968C211.81 67.1968 211.19 67.036 210.632 66.7144C210.077 66.3885 209.642 65.9421 209.324 65.375C209.007 64.8079 208.848 64.1795 208.848 63.4897C208.848 62.7957 209.005 62.1652 209.318 61.5981C209.635 61.0311 210.071 60.5868 210.625 60.2651C211.184 59.9435 211.806 59.7827 212.492 59.7827C213.194 59.7827 213.825 59.9499 214.383 60.2842C214.942 60.6143 215.371 61.0586 215.672 61.6172C215.972 62.1758 216.123 62.7915 216.123 63.4644ZM212.492 61.4014C212.073 61.4014 211.717 61.5177 211.425 61.7505C211.133 61.9832 210.932 62.3091 210.822 62.728H214.225C214.093 62.3006 213.878 61.9727 213.577 61.7441C213.281 61.5156 212.919 61.4014 212.492 61.4014ZM224.171 59.9414H224.793V61.7314H223.975C223.441 61.7314 223.058 61.8584 222.826 62.1123C222.597 62.362 222.483 62.7746 222.483 63.3501V67H220.585V59.9795H221.797L222.134 60.8428C222.616 60.2419 223.295 59.9414 224.171 59.9414ZM232.525 63.4644C232.525 63.6548 232.512 63.841 232.487 64.0229H227.174C227.254 64.5011 227.445 64.8693 227.745 65.1274C228.05 65.3813 228.433 65.5083 228.894 65.5083C229.22 65.5083 229.512 65.4364 229.77 65.2925C230.032 65.1486 230.236 64.9497 230.379 64.6958H232.373C232.119 65.4618 231.679 66.0711 231.052 66.5239C230.426 66.9725 229.707 67.1968 228.894 67.1968C228.213 67.1968 227.593 67.036 227.034 66.7144C226.48 66.3885 226.044 65.9421 225.727 65.375C225.409 64.8079 225.25 64.1795 225.25 63.4897C225.25 62.7957 225.407 62.1652 225.72 61.5981C226.038 61.0311 226.473 60.5868 227.028 60.2651C227.586 59.9435 228.208 59.7827 228.894 59.7827C229.597 59.7827 230.227 59.9499 230.786 60.2842C231.344 60.6143 231.774 61.0586 232.074 61.6172C232.375 62.1758 232.525 62.7915 232.525 63.4644ZM228.894 61.4014C228.475 61.4014 228.12 61.5177 227.828 61.7505C227.536 61.9832 227.335 62.3091 227.225 62.728H230.627C230.496 62.3006 230.28 61.9727 229.979 61.7441C229.683 61.5156 229.321 61.4014 228.894 61.4014ZM241.862 59.8145C242.59 59.8145 243.183 60.0726 243.64 60.5889C244.101 61.1051 244.332 61.7738 244.332 62.5947V67H242.434V62.9121C242.434 62.4424 242.343 62.0869 242.161 61.8457C241.983 61.6003 241.723 61.4775 241.38 61.4775C240.957 61.4775 240.625 61.6299 240.383 61.9346C240.146 62.235 240.028 62.6582 240.028 63.2041V67H238.181V62.9121C238.181 62.4424 238.092 62.0869 237.914 61.8457C237.741 61.6003 237.485 61.4775 237.146 61.4775C236.714 61.4775 236.378 61.6299 236.137 61.9346C235.896 62.235 235.775 62.6582 235.775 63.2041V67H233.877V59.9795H235.197L235.553 60.8491C235.802 60.5317 236.111 60.2799 236.479 60.0938C236.852 59.9076 237.241 59.8145 237.647 59.8145C238.092 59.8145 238.492 59.9139 238.847 60.1128C239.203 60.3075 239.482 60.5825 239.685 60.938C239.931 60.591 240.244 60.318 240.625 60.1191C241.01 59.916 241.422 59.8145 241.862 59.8145ZM251.803 59.9668H253.225V66.9873H251.733L251.568 66.3589C250.929 66.9175 250.171 67.1968 249.295 67.1968C248.601 67.1968 247.973 67.036 247.41 66.7144C246.847 66.3927 246.407 65.9484 246.09 65.3813C245.772 64.8101 245.614 64.1753 245.614 63.4771C245.614 62.783 245.772 62.1546 246.09 61.5918C246.407 61.0247 246.847 60.5825 247.41 60.2651C247.973 59.9435 248.601 59.7827 249.295 59.7827C250.188 59.7827 250.956 60.0684 251.6 60.6396L251.803 59.9668ZM248.077 64.8545C248.441 65.2184 248.898 65.4004 249.448 65.4004C249.998 65.4004 250.453 65.2184 250.812 64.8545C251.176 64.4906 251.358 64.0314 251.358 63.4771C251.358 62.9227 251.176 62.4635 250.812 62.0996C250.453 61.7357 249.998 61.5537 249.448 61.5537C248.898 61.5537 248.441 61.7378 248.077 62.106C247.717 62.4699 247.537 62.9269 247.537 63.4771C247.537 64.0272 247.717 64.4863 248.077 64.8545ZM255.053 59.0464V57.2817H256.944V59.0464H255.053ZM255.053 67V59.9795H256.951V67H255.053ZM262.765 59.8145C263.561 59.8145 264.193 60.0811 264.663 60.6143C265.133 61.1432 265.368 61.8542 265.368 62.7471V67H263.47V63.0518C263.47 62.0023 263.061 61.4775 262.245 61.4775C261.758 61.4775 261.373 61.6426 261.089 61.9727C260.81 62.2985 260.67 62.745 260.67 63.312V67H258.772V59.9795H260.074L260.442 60.8491C260.713 60.5275 261.049 60.2757 261.451 60.0938C261.857 59.9076 262.295 59.8145 262.765 59.8145ZM267.101 59.0464V57.2817H268.992V59.0464H267.101ZM267.101 67V59.9795H268.999V67H267.101ZM274.813 59.8145C275.609 59.8145 276.241 60.0811 276.711 60.6143C277.181 61.1432 277.416 61.8542 277.416 62.7471V67H275.518V63.0518C275.518 62.0023 275.109 61.4775 274.292 61.4775C273.806 61.4775 273.421 61.6426 273.137 61.9727C272.858 62.2985 272.718 62.745 272.718 63.312V67H270.82V59.9795H272.122L272.49 60.8491C272.761 60.5275 273.097 60.2757 273.499 60.0938C273.905 59.9076 274.343 59.8145 274.813 59.8145ZM284.811 59.9795H286.042V66.1875C286.042 67.2835 285.722 68.1468 285.083 68.7773C284.444 69.4121 283.569 69.7295 282.456 69.7295C281.503 69.7295 280.71 69.501 280.075 69.0439C279.44 68.5869 279.043 67.9564 278.882 67.1523H280.767C280.869 67.4528 281.076 67.6855 281.389 67.8506C281.707 68.0199 282.051 68.1045 282.424 68.1045C282.919 68.1045 283.336 67.9543 283.674 67.6538C284.013 67.3576 284.182 66.9598 284.182 66.4604V66.1938C283.585 66.6128 282.917 66.8223 282.176 66.8223C281.533 66.8223 280.943 66.6678 280.405 66.3589C279.872 66.05 279.451 65.6268 279.142 65.0894C278.837 64.5477 278.685 63.9531 278.685 63.3057C278.685 62.6624 278.837 62.0721 279.142 61.5347C279.451 60.993 279.872 60.5656 280.405 60.2524C280.943 59.9393 281.533 59.7827 282.176 59.7827C283.086 59.7827 283.863 60.0811 284.506 60.6777L284.811 59.9795ZM282.398 65.1274C282.915 65.1274 283.342 64.9561 283.681 64.6133C284.019 64.2663 284.188 63.8304 284.188 63.3057C284.188 62.7852 284.019 62.3556 283.681 62.0171C283.346 61.6743 282.919 61.5029 282.398 61.5029C281.882 61.5029 281.455 61.6743 281.116 62.0171C280.778 62.3556 280.608 62.7852 280.608 63.3057C280.608 63.8304 280.776 64.2663 281.11 64.6133C281.448 64.9561 281.878 65.1274 282.398 65.1274Z" fill="#11346F" />

<rect x="0.5" y="2.5" width="330" height="82" rx="18.5" stroke="#AECCFF"/>
<path d="M60.1889 21.5C60.1889 9.90202 69.5909 0.5 81.1889 0.5H309.5C321.098 0.5 330.5 9.90202 330.5 21.5C330.5 33.098 321.098 42.5 309.5 42.5H81.1889C69.5909 42.5 60.1889 33.098 60.1889 21.5Z" fill="#F0F6FF" stroke="#AECCFF"/>
<rect x="0.5" y="0.5" width="157" height="42" rx="21" fill="#BFF5BE" stroke="#99D298"/>
<path d="M26.0674 26.1641C25.0908 26.1641 24.3037 25.9062 23.7061 25.3906C23.1084 24.8711 22.8096 24.166 22.8096 23.2754H24.6377C24.6377 23.6621 24.7744 23.9609 25.0479 24.1719C25.3213 24.3789 25.6572 24.4824 26.0557 24.4824C26.4189 24.4824 26.7354 24.3926 27.0049 24.2129C27.2744 24.0332 27.4092 23.793 27.4092 23.4922C27.4092 23.3867 27.3896 23.291 27.3506 23.2051C27.3154 23.1191 27.2529 23.043 27.1631 22.9766C27.0771 22.9102 26.9932 22.8535 26.9111 22.8066C26.833 22.7598 26.7158 22.7129 26.5596 22.666C26.4033 22.6191 26.2744 22.584 26.1729 22.5605C26.0752 22.5332 25.9268 22.4961 25.7275 22.4492C25.0244 22.2773 24.5166 22.1152 24.2041 21.9629C23.4619 21.6074 23.0439 21.0605 22.9502 20.3223C22.9346 20.2051 22.9268 20.084 22.9268 19.959C22.9268 19.1621 23.1982 18.5449 23.7412 18.1074C24.2881 17.666 25.0322 17.4453 25.9736 17.4453C26.9346 17.4453 27.6787 17.6855 28.2061 18.166C28.7373 18.6426 29.0029 19.3027 29.0029 20.1465H27.2041C27.2041 19.8027 27.0811 19.541 26.835 19.3613C26.5928 19.1777 26.29 19.0859 25.9268 19.0859C25.6025 19.0859 25.3232 19.1543 25.0889 19.291C24.8584 19.4277 24.7432 19.625 24.7432 19.8828C24.7432 19.9961 24.7725 20.0996 24.8311 20.1934C24.8936 20.2871 24.9658 20.3633 25.0479 20.4219C25.1299 20.4805 25.2529 20.541 25.417 20.6035C25.5811 20.6621 25.7217 20.707 25.8389 20.7383C25.96 20.7695 26.1338 20.8125 26.3604 20.8672C26.5518 20.9141 26.6982 20.9512 26.7998 20.9785C26.9053 21.0059 27.0518 21.0488 27.2393 21.1074C27.4268 21.166 27.5752 21.2207 27.6846 21.2715C27.7939 21.3184 27.9287 21.3848 28.0889 21.4707C28.249 21.5527 28.376 21.6367 28.4697 21.7227C28.5674 21.8047 28.6709 21.9082 28.7803 22.0332C28.8936 22.1582 28.9795 22.2891 29.0381 22.4258C29.0967 22.5625 29.1455 22.7207 29.1846 22.9004C29.2275 23.0801 29.249 23.2715 29.249 23.4746C29.249 23.916 29.165 24.3105 28.9971 24.6582C28.8291 25.0059 28.5986 25.2891 28.3057 25.5078C28.0166 25.7227 27.6807 25.8867 27.2979 26C26.9189 26.1094 26.5088 26.1641 26.0674 26.1641ZM36.0049 26L35.4189 24.4062H32.0732L31.499 26H29.5713L32.8643 17.5977H34.5752L37.9736 26H36.0049ZM33.7373 19.8184L32.6416 22.8242H34.8447L33.7373 19.8184ZM43.5928 17.5977H45.5791L42.4033 26H40.6865L37.3994 17.5977H39.4092L41.5303 23.5391L43.5928 17.5977ZM48.5088 24.3066H51.8662V26H46.6924V17.5977H51.7373V19.2793H48.5088V20.9375H51.4209V22.584H48.5088V24.3066ZM61.9854 23.5684C61.9854 24.2715 61.7686 24.8359 61.335 25.2617C60.9053 25.6875 60.335 25.9551 59.624 26.0645V26.9082H58.2412V26.0703C57.4873 25.957 56.8896 25.6641 56.4482 25.1914C56.0107 24.7188 55.792 24.1133 55.792 23.375H57.5557C57.5557 23.7305 57.6865 24.0059 57.9482 24.2012C58.21 24.3926 58.5303 24.4883 58.9092 24.4883C59.2568 24.4883 59.5596 24.4062 59.8174 24.2422C60.0791 24.0781 60.21 23.8594 60.21 23.5859C60.21 23.2852 60.0205 23.0527 59.6416 22.8887C59.4619 22.8105 59.1182 22.7109 58.6104 22.5898C57.9229 22.4258 57.4268 22.2695 57.1221 22.1211C56.3916 21.7656 55.9912 21.2109 55.9209 20.457C55.9131 20.3711 55.9092 20.2832 55.9092 20.1934C55.9092 19.541 56.1064 19.0137 56.501 18.6113C56.8955 18.209 57.4424 17.957 58.1416 17.8555V17.0762H59.5361V17.8555C60.2432 17.9648 60.7881 18.2422 61.1709 18.6875C61.5537 19.1289 61.7451 19.6973 61.7451 20.3926H60.0166C60.0166 20.0684 59.8994 19.8203 59.665 19.6484C59.4346 19.4766 59.1436 19.3906 58.792 19.3906C58.4795 19.3906 58.21 19.4531 57.9834 19.5781C57.7607 19.7031 57.6494 19.8828 57.6494 20.1172C57.6494 20.207 57.665 20.2891 57.6963 20.3633C57.7275 20.4375 57.7822 20.5039 57.8604 20.5625C57.9385 20.6211 58.0107 20.6719 58.0771 20.7148C58.1436 20.7539 58.2471 20.7969 58.3877 20.8438C58.5322 20.8867 58.6455 20.9199 58.7275 20.9434C58.8135 20.9629 58.9482 20.9961 59.1318 21.043C59.1631 21.0508 59.1865 21.0566 59.2021 21.0605C59.3857 21.1074 59.5264 21.1445 59.624 21.1719C59.7256 21.1953 59.8662 21.2344 60.0459 21.2891C60.2256 21.3438 60.3682 21.3945 60.4736 21.4414C60.583 21.4883 60.7139 21.5527 60.8662 21.6348C61.0186 21.7129 61.1416 21.793 61.2354 21.875C61.3291 21.957 61.4287 22.0586 61.5342 22.1797C61.6396 22.2969 61.7217 22.4219 61.7803 22.5547C61.8389 22.6875 61.8877 22.8418 61.9268 23.0176C61.9658 23.1895 61.9854 23.373 61.9854 23.5684ZM62.7939 18.0195H68.5068V18.248L65.46 26H63.6846L66.2393 19.5547H62.7939V18.0195ZM74.7236 25.0332C74.1416 25.7754 73.3545 26.1465 72.3623 26.1465C71.3701 26.1465 70.583 25.7754 70.001 25.0332C69.4189 24.2871 69.1279 23.2773 69.1279 22.0039C69.1279 20.7266 69.417 19.7188 69.9951 18.9805C70.5732 18.2383 71.3623 17.8672 72.3623 17.8672C73.3623 17.8672 74.1514 18.2383 74.7295 18.9805C75.3076 19.7188 75.5967 20.7266 75.5967 22.0039C75.5967 23.2773 75.3057 24.2871 74.7236 25.0332ZM71.2432 23.8906C71.501 24.3281 71.874 24.5469 72.3623 24.5469C72.8506 24.5469 73.2236 24.3301 73.4814 23.8965C73.7393 23.4629 73.8682 22.8359 73.8682 22.0156C73.8682 21.1953 73.7373 20.5664 73.4756 20.1289C73.2139 19.6875 72.8428 19.4668 72.3623 19.4668C71.874 19.4668 71.501 19.6855 71.2432 20.123C70.9854 20.5566 70.8564 21.1836 70.8564 22.0039C70.8564 22.8242 70.9854 23.4531 71.2432 23.8906ZM79.7744 23.4746V21.7871H83.6885V23.4746H79.7744ZM91.4287 20.9727C92.0225 21.1055 92.4951 21.3945 92.8467 21.8398C93.2021 22.2812 93.3799 22.8145 93.3799 23.4395C93.3799 24.2207 93.1104 24.8672 92.5713 25.3789C92.0361 25.8906 91.3623 26.1465 90.5498 26.1465C89.7568 26.1465 89.1064 25.9004 88.5986 25.4082C88.0908 24.9121 87.8232 24.2695 87.7959 23.4805H89.5068C89.5225 23.8047 89.624 24.0645 89.8115 24.2598C90.0029 24.4512 90.249 24.5469 90.5498 24.5469C90.8701 24.5469 91.1338 24.4395 91.3408 24.2246C91.5479 24.0059 91.6514 23.7266 91.6514 23.3867C91.6514 23.0469 91.54 22.7773 91.3174 22.5781C91.0947 22.375 90.7998 22.2734 90.4326 22.2734H89.2725V21.9512L90.7256 19.5547H87.9893V18.0195H93.0752V18.3359L91.4287 20.9727ZM98.0381 20.9727C98.6318 21.1055 99.1045 21.3945 99.4561 21.8398C99.8115 22.2812 99.9893 22.8145 99.9893 23.4395C99.9893 24.2207 99.7197 24.8672 99.1807 25.3789C98.6455 25.8906 97.9717 26.1465 97.1592 26.1465C96.3662 26.1465 95.7158 25.9004 95.208 25.4082C94.7002 24.9121 94.4326 24.2695 94.4053 23.4805H96.1162C96.1318 23.8047 96.2334 24.0645 96.4209 24.2598C96.6123 24.4512 96.8584 24.5469 97.1592 24.5469C97.4795 24.5469 97.7432 24.4395 97.9502 24.2246C98.1572 24.0059 98.2607 23.7266 98.2607 23.3867C98.2607 23.0469 98.1494 22.7773 97.9268 22.5781C97.7041 22.375 97.4092 22.2734 97.042 22.2734H95.8818V21.9512L97.335 19.5547H94.5986V18.0195H99.6846V18.3359L98.0381 20.9727ZM104.431 20.8027C104.044 21.1816 103.548 21.3711 102.942 21.3711C102.337 21.3711 101.839 21.1816 101.448 20.8027C101.062 20.4238 100.868 19.9375 100.868 19.3438C100.868 18.7539 101.062 18.2695 101.448 17.8906C101.839 17.5078 102.337 17.3164 102.942 17.3164C103.552 17.3164 104.048 17.5059 104.431 17.8848C104.817 18.2637 105.011 18.75 105.011 19.3438C105.011 19.9375 104.817 20.4238 104.431 20.8027ZM102.087 26.0469L107.185 17.5859H109.019L103.921 26.0469H102.087ZM102.942 20.0293C103.142 20.0293 103.306 19.9648 103.435 19.8359C103.563 19.707 103.628 19.543 103.628 19.3438C103.628 19.1406 103.563 18.9746 103.435 18.8457C103.31 18.7168 103.146 18.6523 102.942 18.6523C102.747 18.6523 102.583 18.7168 102.45 18.8457C102.321 18.9746 102.257 19.1406 102.257 19.3438C102.257 19.5391 102.321 19.7031 102.45 19.8359C102.583 19.9648 102.747 20.0293 102.942 20.0293ZM109.845 25.4844C109.458 25.8633 108.962 26.0527 108.356 26.0527C107.751 26.0527 107.253 25.8633 106.862 25.4844C106.476 25.1016 106.282 24.6152 106.282 24.0254C106.282 23.4355 106.476 22.9512 106.862 22.5723C107.253 22.1934 107.751 22.0039 108.356 22.0039C108.962 22.0039 109.458 22.1934 109.845 22.5723C110.231 22.9512 110.425 23.4355 110.425 24.0254C110.425 24.6152 110.231 25.1016 109.845 25.4844ZM108.356 24.7109C108.556 24.7109 108.718 24.6465 108.843 24.5176C108.972 24.3887 109.036 24.2246 109.036 24.0254C109.036 23.8223 108.974 23.6582 108.849 23.5332C108.724 23.4043 108.56 23.3398 108.356 23.3398C108.157 23.3398 107.993 23.4043 107.864 23.5332C107.735 23.6621 107.671 23.8262 107.671 24.0254C107.671 24.2207 107.735 24.3848 107.864 24.5176C107.997 24.6465 108.161 24.7109 108.356 24.7109ZM118.604 26.1816C117.972 26.1816 117.378 26.0703 116.823 25.8477C116.269 25.6211 115.792 25.3145 115.394 24.9277C114.999 24.541 114.687 24.0762 114.456 23.5332C114.229 22.9902 114.116 22.4121 114.116 21.7988C114.116 21.1855 114.229 20.6074 114.456 20.0645C114.687 19.5215 114.999 19.0566 115.394 18.6699C115.792 18.2832 116.269 17.9785 116.823 17.7559C117.378 17.5293 117.972 17.416 118.604 17.416C119.233 17.416 119.823 17.5273 120.374 17.75C120.929 17.9727 121.401 18.2793 121.792 18.6699C122.187 19.0566 122.497 19.5215 122.724 20.0645C122.95 20.6035 123.063 21.1816 123.063 21.7988C123.063 22.416 122.95 22.9961 122.724 23.5391C122.497 24.0781 122.187 24.543 121.792 24.9336C121.401 25.3203 120.929 25.625 120.374 25.8477C119.823 26.0703 119.233 26.1816 118.604 26.1816ZM116.724 23.7031C117.231 24.2148 117.858 24.4707 118.604 24.4707C119.351 24.4707 119.974 24.2168 120.474 23.709C120.974 23.1973 121.224 22.5605 121.224 21.7988C121.224 21.0371 120.974 20.4023 120.474 19.8945C119.974 19.3867 119.351 19.1328 118.604 19.1328C117.858 19.1328 117.231 19.3887 116.724 19.9004C116.216 20.4121 115.962 21.0449 115.962 21.7988C115.962 22.5527 116.216 23.1875 116.724 23.7031ZM129.509 19.291H126.31V21.1367H129.198V22.7832H126.31V26H124.493V17.5977H129.509V19.291ZM135.931 19.291H132.731V21.1367H135.62V22.7832H132.731V26H130.915V17.5977H135.931V19.291ZM137.354 23.2871V17.3574H139.13V23.2871H137.354ZM137.313 26V24.125H139.171V26H137.313Z" fill="#11346F"/>
</svg>
